<svg width="230" height="230" viewBox="0 0 230 230" fill="none" xmlns="http://www.w3.org/2000/svg">
<path d="M157.062 188.491C157.062 211.418 138.477 230.002 115.551 230.002C92.6247 230.002 74.0392 211.418 74.0392 188.491V41.5111C74.0392 18.5852 92.6247 -7.83066e-06 115.551 0C138.477 0 157.062 18.5852 157.062 41.5111V188.491Z" fill="#00D3C7"/>
<path d="M116.576 74.0489C139.197 74.0489 157.537 92.3869 157.537 115.008C157.537 137.629 139.197 155.968 116.576 155.968H40.9595C18.3381 155.968 -9.89019e-07 137.629 0 115.008C9.88231e-07 92.3869 18.3381 74.0489 40.9594 74.0489H116.576Z" fill="#00D3C7"/>
<path d="M189.041 74.0488C211.661 74.0488 230 92.3868 230 115.008C230 137.629 211.661 155.968 189.041 155.968H114.999C92.3774 155.968 74.0392 137.629 74.0392 115.008C74.0392 92.3868 92.3774 74.0488 114.999 74.0488H189.041Z" fill="white"/>
<path d="M157.509 74V155.919H114.975C92.3537 155.919 74.0155 137.58 74.0155 114.959C74.0155 92.338 92.3537 74 114.975 74H157.509Z" fill="#2E37A4"/>
</svg>
