<svg width="133" height="28" viewBox="0 0 133 28" fill="none" xmlns="http://www.w3.org/2000/svg">
<g clip-path="url(#clip0_56338_160306)">
<path d="M20.117 23.0983C20.117 25.8881 17.8604 28.1494 15.0766 28.1494C12.2928 28.1494 10.0361 25.8881 10.0361 23.0983V5.21392C10.0361 2.42428 12.2928 0.162841 15.0766 0.162842C17.8604 0.162842 20.117 2.42428 20.117 5.21392V23.0983Z" fill="#2E37A4"/>
<path d="M15.2011 9.17285C17.9478 9.17285 20.1746 11.4043 20.1746 14.1568C20.1746 16.9093 17.9478 19.1407 15.2011 19.1407H6.01936C3.27259 19.1407 1.0459 16.9093 1.0459 14.1568C1.0459 11.4043 3.27259 9.17285 6.01935 9.17285H15.2011Z" fill="#2E37A4"/>
<path d="M24 9.17285C26.7468 9.17285 28.9735 11.4043 28.9735 14.1568C28.9735 16.9093 26.7468 19.1407 24 19.1407H15.0096C12.2628 19.1407 10.0361 16.9093 10.0361 14.1568C10.0361 11.4043 12.2628 9.17285 15.0096 9.17285H24Z" fill="#00D3C7"/>
<path d="M20.1744 9.17285V19.1407H15.0096C12.2628 19.1407 10.0361 16.9093 10.0361 14.1568C10.0361 11.4043 12.2628 9.17285 15.0096 9.17285H20.1744Z" fill="white"/>
<path d="M119.763 7.65088H123.786L125.999 14.6173C126.06 14.7965 126.104 14.9832 126.133 15.1773C126.178 15.3565 126.216 15.5506 126.245 15.7597C126.275 15.9538 126.298 16.1629 126.312 16.3869H126.379C126.424 16.0434 126.476 15.7298 126.536 15.4461C126.611 15.1474 126.685 14.8786 126.759 14.6397L128.972 7.65088H132.906L127.854 21.1581C127.527 22.069 127.11 22.8306 126.603 23.4429C126.111 24.0701 125.515 24.5405 124.814 24.8541C124.129 25.1677 123.325 25.3245 122.4 25.3245C122.028 25.3245 121.701 25.3021 121.417 25.2573C121.134 25.2274 120.888 25.1901 120.679 25.1453V22.1661C120.843 22.196 121.037 22.2258 121.26 22.2557C121.5 22.2856 121.745 22.3005 121.998 22.3005C122.475 22.3005 122.87 22.2034 123.183 22.0093C123.496 21.8152 123.757 21.5538 123.965 21.2253C124.174 20.9117 124.345 20.5682 124.479 20.1949L124.613 19.8141L119.763 7.65088Z" fill="black"/>
<path d="M119.575 10.4731H116.803V19.9482H113.048V10.4731H111.305V8.63626L113.093 7.67306V7.09066C113.093 6.03039 113.249 5.19413 113.562 4.58186C113.875 3.95466 114.352 3.50666 114.993 3.23786C115.634 2.95413 116.416 2.81226 117.34 2.81226C117.996 2.81226 118.585 2.86453 119.106 2.96906C119.627 3.07359 120.111 3.20053 120.558 3.34986L119.664 5.94826C119.441 5.88853 119.188 5.82879 118.904 5.76906C118.622 5.70933 118.309 5.67946 117.966 5.67946C117.563 5.67946 117.266 5.80639 117.071 6.06026C116.893 6.29919 116.803 6.64266 116.803 7.09066V7.65066H119.575V10.4731Z" fill="black"/>
<path d="M109.193 7.65053V19.9481H105.438V7.65053H109.193ZM107.338 2.76733C107.874 2.76733 108.344 2.8868 108.746 3.12573C109.148 3.36466 109.35 3.8276 109.35 4.51453C109.35 5.18653 109.148 5.64946 108.746 5.90333C108.344 6.14226 107.874 6.26173 107.338 6.26173C106.772 6.26173 106.287 6.14226 105.885 5.90333C105.498 5.64946 105.304 5.18653 105.304 4.51453C105.304 3.8276 105.498 3.36466 105.885 3.12573C106.287 2.8868 106.772 2.76733 107.338 2.76733Z" fill="black"/>
<path d="M102.187 19.9485H98.4092V2.92456H102.187V19.9485Z" fill="black"/>
<path d="M91.3072 7.42676C92.6781 7.42676 93.7734 7.97182 94.5931 9.06196C95.4127 10.1372 95.8225 11.7052 95.8225 13.766C95.8225 15.1697 95.6214 16.3494 95.219 17.3052C94.8167 18.2609 94.2652 18.9777 93.5649 19.4556C92.8793 19.9334 92.0896 20.1724 91.1955 20.1724C90.6143 20.1724 90.115 20.0977 89.6978 19.9484C89.2955 19.799 88.9452 19.6124 88.6472 19.3884C88.364 19.1494 88.1256 18.9105 87.9319 18.6716H87.7755C87.8202 18.9553 87.8574 19.254 87.8872 19.5676C87.917 19.8812 87.9319 20.2172 87.9319 20.5756V25.3244H84.1543V7.65076H87.2166L87.7531 9.21876H87.9319C88.1405 8.89022 88.3939 8.59156 88.6919 8.32276C89.0049 8.05396 89.3774 7.83742 89.8096 7.67316C90.2417 7.50889 90.7409 7.42676 91.3072 7.42676ZM89.9884 10.406C89.4817 10.406 89.0793 10.518 88.7814 10.742C88.4981 10.966 88.2896 11.302 88.1555 11.75C88.0214 12.183 87.9468 12.7356 87.9319 13.4076V13.7436C87.9319 14.4753 87.9915 15.095 88.1108 15.6028C88.2449 16.0956 88.4609 16.4764 88.759 16.7452C89.0719 16.999 89.4967 17.126 90.0331 17.126C90.4652 17.126 90.8229 17.0065 91.1061 16.7676C91.404 16.5137 91.6202 16.1329 91.7543 15.6252C91.9033 15.1174 91.9778 14.4828 91.9778 13.7212C91.9778 12.5713 91.8139 11.735 91.4861 11.2124C91.1581 10.6748 90.659 10.406 89.9884 10.406Z" fill="black"/>
<path d="M76.7054 7.42676C78.1062 7.42676 79.1642 7.78516 79.8795 8.50196C80.6097 9.20382 80.9748 10.3462 80.9748 11.9292V19.9484H77.2195V12.982C77.2195 12.086 77.0779 11.4364 76.7948 11.0332C76.5266 10.615 76.1093 10.406 75.5431 10.406C74.7532 10.406 74.1944 10.7196 73.8666 11.3468C73.5387 11.959 73.3748 12.8401 73.3748 13.99V19.9484H69.6195V12.982C69.6195 12.3996 69.5598 11.9217 69.4407 11.5484C69.3215 11.1601 69.1426 10.8764 68.9042 10.6972C68.6657 10.503 68.3528 10.406 67.9654 10.406C67.414 10.406 66.9744 10.5628 66.6466 10.8764C66.3336 11.175 66.1101 11.6156 65.976 12.198C65.8567 12.7804 65.7972 13.4972 65.7972 14.3484V19.9484H62.0195V7.65076H64.8807L65.4172 9.19636H65.5736C65.812 8.80809 66.1101 8.48702 66.4678 8.23316C66.8254 7.96436 67.2351 7.76276 67.6972 7.62836C68.1591 7.49396 68.6584 7.42676 69.1948 7.42676C70.0889 7.42676 70.8415 7.57609 71.4525 7.87476C72.0634 8.17342 72.5403 8.60649 72.8831 9.17396H73.1066C73.494 8.59156 74.0081 8.15849 74.6489 7.87476C75.2897 7.57609 75.9751 7.42676 76.7054 7.42676Z" fill="black"/>
<path d="M47.2695 7.65088H51.2931L53.506 14.6173C53.5656 14.7965 53.6103 14.9832 53.6401 15.1773C53.6848 15.3565 53.722 15.5506 53.7519 15.7597C53.7817 15.9538 53.8041 16.1629 53.8189 16.3869H53.886C53.9307 16.0434 53.9829 15.7298 54.0425 15.4461C54.117 15.1474 54.1915 14.8786 54.266 14.6397L56.4789 7.65088H60.4131L55.3613 21.1581C55.0335 22.069 54.6162 22.8306 54.1095 23.4429C53.6178 24.0701 53.0217 24.5405 52.3213 24.8541C51.6358 25.1677 50.8311 25.3245 49.9072 25.3245C49.5347 25.3245 49.2067 25.3021 48.9236 25.2573C48.6405 25.2274 48.3947 25.1901 48.186 25.1453V22.1661C48.35 22.196 48.5436 22.2258 48.7672 22.2557C49.0056 22.2856 49.2515 22.3005 49.5048 22.3005C49.9817 22.3005 50.3766 22.2034 50.6895 22.0093C51.0025 21.8152 51.2632 21.5538 51.4719 21.2253C51.6805 20.9117 51.8519 20.5682 51.986 20.1949L52.1201 19.8141L47.2695 7.65088Z" fill="black"/>
<path d="M46.4315 15.3115C46.4315 16.2224 46.2079 17.0512 45.7609 17.7979C45.3138 18.5296 44.6432 19.112 43.7491 19.5451C42.855 19.9632 41.7298 20.1723 40.3738 20.1723C39.7479 20.1723 39.1667 20.135 38.6303 20.0603C38.0938 19.9856 37.5797 19.8811 37.0879 19.7467C36.611 19.5974 36.1416 19.4107 35.6797 19.1867V15.7147C36.4844 16.088 37.304 16.4016 38.1385 16.6555C38.9879 16.9094 39.8001 17.0363 40.575 17.0363C41.0667 17.0363 41.4616 16.9766 41.7597 16.8571C42.0726 16.7227 42.2962 16.551 42.4303 16.3419C42.5793 16.1179 42.6538 15.864 42.6538 15.5803C42.6538 15.2368 42.5346 14.9456 42.2962 14.7067C42.0726 14.4528 41.7373 14.2139 41.2903 13.9899C40.8432 13.751 40.2993 13.4822 39.6585 13.1835C39.1816 12.9744 38.7122 12.7355 38.2503 12.4667C37.8032 12.183 37.3934 11.8619 37.0209 11.5035C36.6632 11.1302 36.3726 10.6896 36.1491 10.1819C35.9404 9.65924 35.8362 9.04697 35.8362 8.34511C35.8362 7.34457 36.0672 6.50831 36.5291 5.83631C37.006 5.14937 37.6691 4.62671 38.5185 4.26831C39.3679 3.90991 40.3663 3.73071 41.5138 3.73071C42.4526 3.73071 43.3169 3.83524 44.1067 4.04431C44.8966 4.25337 45.664 4.52217 46.4091 4.85071L45.202 7.82991C44.4867 7.51631 43.8162 7.27737 43.1903 7.11311C42.5793 6.93391 41.9832 6.84431 41.402 6.84431C40.9997 6.84431 40.6644 6.90404 40.3962 7.02351C40.1279 7.12804 39.9267 7.28484 39.7926 7.49391C39.6585 7.68804 39.5915 7.91951 39.5915 8.18831C39.5915 8.50191 39.6957 8.77817 39.9044 9.01711C40.1131 9.24111 40.4409 9.47257 40.8879 9.71151C41.335 9.95044 41.9236 10.2416 42.6538 10.5851C43.4436 10.9435 44.1216 11.3318 44.6879 11.7499C45.2542 12.168 45.6863 12.6608 45.9844 13.2283C46.2825 13.7808 46.4315 14.4752 46.4315 15.3115Z" fill="black"/>
</g>
<defs>
<clipPath id="clip0_56338_160306">
<rect width="133" height="28" fill="white"/>
</clipPath>
</defs>
</svg>
