<svg width="1043" height="230" viewBox="0 0 1043 230" fill="none" xmlns="http://www.w3.org/2000/svg">
<g clip-path="url(#clip0_22_568)">
<mask id="mask0_22_568" style="mask-type:luminance" maskUnits="userSpaceOnUse" x="0" y="0" width="1043" height="230">
<path d="M1043 0H0V230H1043V0Z" fill="white"/>
</mask>
<g mask="url(#mask0_22_568)">
<path d="M157.029 188.491C157.029 211.418 138.448 230.002 115.527 230.002C92.6053 230.002 74.0237 211.418 74.0237 188.491V41.5111C74.0237 18.5852 92.6053 -7.83066e-06 115.527 0C138.448 0 157.029 18.5852 157.029 41.5111V188.491Z" fill="white"/>
<path d="M116.552 74.0489C139.168 74.0489 157.504 92.3869 157.504 115.008C157.504 137.629 139.168 155.968 116.552 155.968H40.9509C18.3343 155.968 -9.88813e-07 137.629 0 115.008C9.88025e-07 92.3869 18.3343 74.0489 40.9508 74.0489H116.552Z" fill="#00D3C7"/>
<path d="M189.001 74.0489C211.617 74.0489 229.952 92.3869 229.952 115.008C229.952 137.629 211.617 155.968 189.001 155.968H114.975C92.3581 155.968 74.0237 137.629 74.0237 115.008C74.0237 92.3869 92.3581 74.0489 114.975 74.0489H189.001Z" fill="#00D3C7"/>
<path d="M157.476 74V155.919H114.951C92.3344 155.919 74 137.58 74 114.959C74 92.338 92.3344 74 114.951 74H157.476Z" fill="#2E37A4"/>
<path d="M1016.69 74.2174H1041.6L1001.24 169.071C992.607 190.667 980.313 197.145 964.2 197.145C955.068 197.145 945.106 194.155 939.291 189.006L948.76 170.566C952.743 174.055 958.221 176.214 963.371 176.214C970.516 176.214 974.499 173.059 977.989 165.085L978.318 164.254L939.628 74.2174H966.36L991.441 134.851L1016.69 74.2174Z" fill="white"/>
<path d="M915.458 72.3918V76.2125H938.38V96.1466H916.124V163.592H890.213V96.1466H876.432V76.2125H890.213V72.2257C890.213 52.1252 902.507 39.0018 924.763 39.0018C932.064 39.0018 939.71 40.4969 944.523 43.8193L937.715 62.5907C934.889 60.5974 931.235 59.4345 927.252 59.4345C919.614 59.4345 915.458 63.5874 915.458 72.3918Z" fill="white"/>
<path d="M850.061 61.7619C840.428 61.7619 833.948 55.4494 833.948 47.3095C833.948 39.1697 840.428 32.8571 850.061 32.8571C859.695 32.8571 866.175 38.8375 866.175 46.8112C866.175 55.4494 859.695 61.7619 850.061 61.7619ZM837.11 163.593V74.2208H863.013V163.593H837.11Z" fill="white"/>
<path d="M787.155 163.594V40.3335H813.063V163.594H787.155Z" fill="white"/>
<path d="M725.301 72.8937C750.379 72.8937 769.81 90.8344 769.81 118.909C769.81 146.983 750.379 164.924 725.301 164.924C714.173 164.924 705.038 161.435 698.395 154.126V195.822H672.487V74.2227H697.233V84.5217C703.71 76.7145 713.343 72.8937 725.301 72.8937ZM720.817 143.66C733.771 143.66 743.57 134.358 743.57 118.909C743.57 103.46 733.771 94.1571 720.817 94.1571C707.862 94.1571 698.064 103.46 698.064 118.909C698.064 134.358 707.862 143.66 720.817 143.66Z" fill="white"/>
<path d="M612.724 72.8937C633.982 72.8937 649.262 85.1863 649.262 112.43V163.595H623.354V116.417C623.354 101.965 616.876 95.3202 606.413 95.3202C594.787 95.3202 586.649 102.795 586.649 118.742V163.595H560.741V116.417C560.741 101.965 554.595 95.3202 543.801 95.3202C532.341 95.3202 524.203 102.795 524.203 118.742V163.595H498.294V74.2227H523.04V84.5217C529.683 76.8806 539.648 72.8937 551.108 72.8937C563.564 72.8937 574.193 77.7113 580.504 87.5125C587.646 78.3757 599.272 72.8937 612.724 72.8937Z" fill="white"/>
<path d="M462.813 74.2174H487.725L447.367 169.071C438.731 190.667 426.441 197.145 410.331 197.145C401.196 197.145 391.232 194.155 385.419 189.006L394.886 170.566C398.871 174.055 404.352 176.214 409.501 176.214C416.642 176.214 420.628 173.059 424.116 165.085L424.448 164.254L385.751 74.2174H412.49L437.568 134.851L462.813 74.2174Z" fill="white"/>
<path d="M334.774 165.585C316.339 165.585 297.738 160.103 287.441 152.129L296.576 131.863C306.374 139.006 320.989 143.99 334.94 143.99C350.884 143.99 357.361 138.674 357.361 131.53C357.361 109.769 289.766 124.72 289.766 81.5289C289.766 61.7608 305.71 45.3149 338.76 45.3149C353.375 45.3149 368.323 48.8035 379.118 55.6143L370.814 76.0471C360.019 69.9006 348.891 66.9105 338.594 66.9105C322.65 66.9105 316.505 72.8907 316.505 80.2C316.505 101.63 384.101 86.8447 384.101 129.538C384.101 148.973 367.99 165.585 334.774 165.585Z" fill="white"/>
</g>
</g>
<defs>
<clipPath id="clip0_22_568">
<rect width="1043" height="230" fill="white"/>
</clipPath>
</defs>
</svg>
