<svg width="230" height="230" viewBox="0 0 230 230" fill="none" xmlns="http://www.w3.org/2000/svg">
<path d="M157.029 188.491C157.029 211.418 138.448 230.002 115.527 230.002C92.6053 230.002 74.0237 211.418 74.0237 188.491V41.5111C74.0237 18.5852 92.6053 -7.83066e-06 115.527 0C138.448 0 157.029 18.5852 157.029 41.5111V188.491Z" fill="white"/>
<path d="M116.552 74.0489C139.168 74.0489 157.504 92.3869 157.504 115.008C157.504 137.629 139.168 155.968 116.552 155.968H40.9509C18.3343 155.968 -9.88813e-07 137.629 0 115.008C9.88025e-07 92.3869 18.3343 74.0489 40.9508 74.0489H116.552Z" fill="#00D3C7"/>
<path d="M189.001 74.0489C211.617 74.0489 229.952 92.3869 229.952 115.008C229.952 137.629 211.617 155.968 189.001 155.968H114.975C92.3581 155.968 74.0237 137.629 74.0237 115.008C74.0237 92.3869 92.3581 74.0489 114.975 74.0489H189.001Z" fill="#00D3C7"/>
<path d="M157.476 74V155.919H114.951C92.3344 155.919 74 137.58 74 114.959C74 92.338 92.3344 74 114.951 74H157.476Z" fill="#2E37A4"/>
</svg>
